<svg width="500" height="500" viewBox="0 0 500 500" fill="none" xmlns="http://www.w3.org/2000/svg" role="img" aria-label="DropLogic logo mark">
  <defs>
    <linearGradient id="dl-bg" x1="50" y1="50" x2="450" y2="450" gradientUnits="userSpaceOnUse">
      <stop stop-color="#18181b"/>
      <stop offset="0.5" stop-color="#09090b"/>
      <stop offset="1" stop-color="#18181b"/>
    </linearGradient>
    <filter id="dl-glow" x="-20%" y="-20%" width="140%" height="140%">
      <feDropShadow dx="0" dy="8" stdDeviation="16" flood-color="#8b5cf6" flood-opacity="0.15"/>
    </filter>
  </defs>

  <!-- Transparent canvas; only the rounded mark is drawn below -->

  <g filter="url(#dl-glow)">
    <rect x="50" y="50" width="400" height="400" rx="125" fill="url(#dl-bg)" stroke="rgba(255,255,255,0.1)" stroke-width="4"/>

    <!-- Package (Lucide) -->
    <g transform="translate(250 250) scale(10.5) translate(-12 -12)" stroke="#f4f4f5" stroke-opacity="0.9" stroke-width="2.25" stroke-linecap="round" stroke-linejoin="round" fill="none">
      <path d="M11 21.73a2 2 0 0 0 2 0l7-4A2 2 0 0 0 21 16V8a2 2 0 0 0-1-1.73l-7-4a2 2 0 0 0-2 0l-7 4A2 2 0 0 0 3 8v8a2 2 0 0 0 1 1.73z"/>
      <path d="M12 22V12"/>
      <path d="m3.3 7 7.703 4.734a2 2 0 0 0 1.994 0L20.7 7"/>
      <path d="m7.5 4.27 9 5.15"/>
    </g>

    <!-- Zap (Lucide, filled) -->
    <g transform="translate(378 122) scale(9) translate(-12 -12)" fill="#a78bfa" stroke="none">
      <path d="M4 14a1 1 0 0 1-.78-1.63l9.9-10.2a.5.5 0 0 1 .86.46l-1.92 6.02A1 1 0 0 0 13 10h7a1 1 0 0 1 .78 1.63l-9.9 10.2a.5.5 0 0 1-.86-.46l1.92-6.02A1 1 0 0 0 11 14z"/>
    </g>

    <!-- Cog (Lucide) -->
    <g transform="translate(122 378) scale(7.5) translate(-12 -12)" stroke="#8b5cf6" stroke-opacity="0.7" stroke-width="2.5" stroke-linecap="round" stroke-linejoin="round" fill="none">
      <path d="M12 20a8 8 0 1 0 0-16 8 8 0 0 0 0 16Z"/>
      <path d="M12 14a2 2 0 1 0 0-4 2 2 0 0 0 0 4Z"/>
      <path d="M12 2v2"/>
      <path d="M12 22v2"/>
      <path d="m4.93 4.93 1.41 1.41"/>
      <path d="m17.66 17.66 1.41 1.41"/>
      <path d="M2 12h2"/>
      <path d="M22 12h2"/>
      <path d="m6.34 17.66-1.41 1.41"/>
      <path d="m19.07 4.93-1.41 1.41"/>
    </g>
  </g>
</svg>
